<svg width="1295" height="304" viewBox="0 0 1295 304" fill="none" xmlns="http://www.w3.org/2000/svg">
<path d="M1294.2 0H0V304H1294.2V0Z" fill="#0B794B"/>
<path fill-rule="evenodd" clip-rule="evenodd" d="M347.193 155.554H383.518C396.909 155.554 409.464 159.906 409.464 175.474C409.464 188.531 400.759 196.901 387.033 196.901H347.193V155.554ZM331.29 210.293H389.042C412.812 210.293 425.367 193.553 425.367 175.977C425.367 161.246 417.332 150.197 402.601 147.184V146.85C413.649 142.33 420.345 132.788 420.345 120.066C420.345 108.348 414.151 99.8109 406.284 95.1239C399.085 90.7719 385.192 90.772 374.646 90.772H331.29V210.293ZM347.193 104.163H378.998C392.724 104.163 404.442 106.507 404.442 123.079C404.442 135.634 397.077 142.162 378.998 142.162H347.193V104.163ZM444.45 210.293H458.679V123.749H444.45V210.293ZM458.679 90.772H444.45V108.181H458.679V90.772ZM476.088 167.105C476.088 192.381 490.651 212.302 518.105 212.302C545.558 212.302 560.121 192.381 560.121 167.105C560.121 141.66 545.558 121.74 518.105 121.74C490.651 121.74 476.088 141.66 476.088 167.105ZM491.154 167.105C491.154 146.013 503.206 134.295 518.105 134.295C533.003 134.295 545.055 146.013 545.055 167.105C545.055 188.029 533.003 199.747 518.105 199.747C503.206 199.747 491.154 188.029 491.154 167.105ZM571.337 183.007C572.174 204.434 588.579 212.302 607.997 212.302C625.573 212.302 644.824 205.606 644.824 185.016C644.824 168.276 630.763 163.589 616.534 160.409C603.309 157.228 588.244 155.554 588.244 145.343C588.244 136.638 598.12 134.295 606.657 134.295C616.032 134.295 625.741 137.81 626.745 148.858H640.974C639.802 127.766 624.569 121.74 605.486 121.74C590.42 121.74 573.178 128.938 573.178 146.347C573.178 162.92 587.407 167.607 601.468 170.787C615.697 173.968 629.758 175.809 629.758 186.857C629.758 197.738 617.706 199.747 608.834 199.747C597.116 199.747 586.068 195.729 585.565 183.007H571.337ZM734.046 151.537C732.038 130.947 716.302 121.74 696.717 121.74C669.264 121.74 655.872 142.162 655.872 168.109C655.872 193.888 669.933 212.302 696.382 212.302C718.144 212.302 731.368 199.747 734.548 178.655H719.985C718.144 191.712 709.941 199.747 696.215 199.747C678.136 199.747 670.938 184.012 670.938 168.109C670.938 150.532 677.299 134.295 697.889 134.295C709.606 134.295 717.139 140.656 719.315 151.537H734.046ZM750.451 210.293H764.68V161.413C764.68 145.845 773.05 134.295 790.292 134.295C801.172 134.295 807.868 141.158 807.868 151.704V210.293H822.097V153.378C822.097 134.797 815.066 121.74 792.3 121.74C781.922 121.74 769.702 126.092 765.015 136.471H764.68V90.772H750.451V210.293ZM903.284 182.84C900.773 194.055 892.571 199.747 880.853 199.747C861.937 199.747 853.4 186.355 853.902 171.289H918.685C919.522 150.365 910.148 121.74 879.514 121.74C855.911 121.74 838.837 140.823 838.837 166.77C839.674 193.218 852.73 212.302 880.351 212.302C899.769 212.302 913.495 201.923 917.346 182.84H903.284ZM853.902 158.735C854.907 145.51 863.779 134.295 878.677 134.295C892.738 134.295 902.949 145.176 903.619 158.735H853.902ZM933.416 210.293H947.644V156.391C947.644 149.863 953.838 134.295 970.745 134.295C983.467 134.295 986.983 142.33 986.983 153.545V210.293H1001.21V156.391C1001.21 142.999 1010.08 134.295 1023.81 134.295C1037.7 134.295 1040.55 142.832 1040.55 153.545V210.293H1054.78V146.85C1054.78 128.938 1043.23 121.74 1025.99 121.74C1014.94 121.74 1004.73 127.264 998.868 136.471C995.353 125.925 985.644 121.74 975.098 121.74C963.212 121.74 953.503 126.762 947.142 136.471H946.807V123.749H933.416V210.293ZM1129.77 180.161C1129.77 188.029 1122.07 199.747 1103.32 199.747C1094.62 199.747 1086.58 196.399 1086.58 187.025C1086.58 176.479 1094.62 173.131 1103.99 171.457C1113.54 169.783 1124.25 169.615 1129.77 165.598V180.161ZM1152.87 198.91C1151.03 199.579 1149.69 199.747 1148.52 199.747C1144 199.747 1144 196.734 1144 190.038V145.51C1144 125.255 1127.09 121.74 1111.53 121.74C1092.28 121.74 1075.7 129.273 1074.87 150.7H1089.09C1089.76 137.977 1098.64 134.295 1110.69 134.295C1119.73 134.295 1129.94 136.304 1129.94 148.691C1129.94 159.404 1116.55 158.4 1100.81 161.413C1086.08 164.259 1071.52 168.444 1071.52 188.029C1071.52 205.271 1084.41 212.302 1100.14 212.302C1112.19 212.302 1122.74 208.117 1130.61 198.91C1130.61 208.284 1135.3 212.302 1142.66 212.302C1147.18 212.302 1150.36 211.465 1152.87 209.958V198.91ZM1160.57 183.007C1161.41 204.434 1177.82 212.302 1197.23 212.302C1214.81 212.302 1234.06 205.606 1234.06 185.016C1234.06 168.276 1220 163.589 1205.77 160.409C1192.55 157.228 1177.48 155.554 1177.48 145.343C1177.48 136.638 1187.36 134.295 1195.89 134.295C1205.27 134.295 1214.98 137.81 1215.98 148.858H1230.21C1229.04 127.766 1213.81 121.74 1194.72 121.74C1179.66 121.74 1162.41 128.938 1162.41 146.347C1162.41 162.92 1176.64 167.607 1190.7 170.787C1204.93 173.968 1218.99 175.809 1218.99 186.857C1218.99 197.738 1206.94 199.747 1198.07 199.747C1186.35 199.747 1175.3 195.729 1174.8 183.007H1160.57Z" fill="white"/>
<path d="M181.29 280.913L76.0229 220.137L181.29 159.361V280.913Z" fill="white"/>
<path d="M190.354 280.891L295.582 220.137L190.354 159.384V280.891Z" fill="white"/>
<path d="M300.118 212.317V90.774L194.859 151.546L300.118 212.317Z" fill="white"/>
<path d="M295.582 82.936L190.323 22.16L190.331 143.703L295.582 82.936Z" fill="white"/>
<path d="M76.016 82.94L181.29 22.16V143.721L76.016 82.94Z" fill="white"/>
<path d="M71.511 212.304V90.779L176.754 151.541L71.511 212.304Z" fill="white"/>
<path d="M140.805 172.315V130.777L176.778 151.546L140.805 172.315Z" fill="#454647"/>
<path d="M181.314 200.913L145.333 180.14L181.314 159.366V200.913Z" fill="#454647"/>
<path d="M190.354 200.908L226.315 180.146L190.354 159.384V200.908Z" fill="#454647"/>
<path d="M230.832 172.315V130.777L194.859 151.546L230.832 172.315Z" fill="#454647"/>
<path d="M226.32 122.943L190.354 102.178V143.707L226.32 122.943Z" fill="#454647"/>
<path d="M145.337 122.93L181.317 102.157V143.703L145.337 122.93Z" fill="#454647"/>
<path fill-rule="evenodd" clip-rule="evenodd" d="M347.193 155.554H383.518C396.909 155.554 409.464 159.906 409.464 175.474C409.464 188.531 400.759 196.901 387.033 196.901H347.193V155.554ZM331.29 210.293H389.042C412.812 210.293 425.367 193.553 425.367 175.977C425.367 161.246 417.332 150.197 402.601 147.184V146.85C413.649 142.33 420.345 132.788 420.345 120.066C420.345 108.348 414.151 99.811 406.284 95.124C399.085 90.772 385.192 90.772 374.646 90.772H331.29V210.293ZM347.193 104.163H378.998C392.724 104.163 404.442 106.507 404.442 123.079C404.442 135.634 397.077 142.162 378.998 142.162H347.193V104.163ZM444.45 210.293H458.679V123.749H444.45V210.293ZM458.679 90.772H444.45V108.181H458.679V90.772ZM476.088 167.105C476.088 192.381 490.651 212.302 518.105 212.302C545.558 212.302 560.121 192.381 560.121 167.105C560.121 141.66 545.558 121.74 518.105 121.74C490.651 121.74 476.088 141.66 476.088 167.105ZM491.154 167.105C491.154 146.013 503.206 134.295 518.105 134.295C533.003 134.295 545.055 146.013 545.055 167.105C545.055 188.029 533.003 199.747 518.105 199.747C503.206 199.747 491.154 188.029 491.154 167.105ZM571.337 183.007C572.174 204.434 588.579 212.302 607.997 212.302C625.573 212.302 644.824 205.606 644.824 185.016C644.824 168.276 630.763 163.589 616.534 160.409C603.309 157.228 588.244 155.554 588.244 145.343C588.244 136.638 598.12 134.295 606.657 134.295C616.032 134.295 625.741 137.81 626.745 148.858H640.974C639.802 127.766 624.569 121.74 605.486 121.74C590.42 121.74 573.178 128.938 573.178 146.347C573.178 162.92 587.407 167.607 601.468 170.787C615.697 173.968 629.758 175.809 629.758 186.857C629.758 197.738 617.706 199.747 608.834 199.747C597.116 199.747 586.068 195.729 585.565 183.007H571.337ZM734.046 151.537C732.038 130.947 716.302 121.74 696.717 121.74C669.264 121.74 655.872 142.162 655.872 168.109C655.872 193.888 669.933 212.302 696.382 212.302C718.144 212.302 731.368 199.747 734.548 178.655H719.985C718.144 191.712 709.941 199.747 696.215 199.747C678.136 199.747 670.938 184.012 670.938 168.109C670.938 150.532 677.299 134.295 697.889 134.295C709.606 134.295 717.139 140.656 719.315 151.537H734.046ZM750.451 210.293H764.68V161.413C764.68 145.845 773.05 134.295 790.292 134.295C801.172 134.295 807.868 141.158 807.868 151.704V210.293H822.097V153.378C822.097 134.797 815.066 121.74 792.3 121.74C781.922 121.74 769.702 126.092 765.015 136.471H764.68V90.772H750.451V210.293ZM903.284 182.84C900.773 194.055 892.571 199.747 880.853 199.747C861.937 199.747 853.4 186.355 853.902 171.289H918.685C919.522 150.365 910.148 121.74 879.514 121.74C855.911 121.74 838.837 140.823 838.837 166.77C839.674 193.218 852.73 212.302 880.351 212.302C899.769 212.302 913.495 201.923 917.346 182.84H903.284ZM853.902 158.735C854.907 145.51 863.779 134.295 878.677 134.295C892.738 134.295 902.949 145.176 903.619 158.735H853.902ZM933.416 210.293H947.644V156.391C947.644 149.863 953.838 134.295 970.745 134.295C983.467 134.295 986.983 142.33 986.983 153.545V210.293H1001.21V156.391C1001.21 142.999 1010.08 134.295 1023.81 134.295C1037.7 134.295 1040.55 142.832 1040.55 153.545V210.293H1054.78V146.85C1054.78 128.938 1043.23 121.74 1025.99 121.74C1014.94 121.74 1004.73 127.264 998.868 136.471C995.353 125.925 985.644 121.74 975.098 121.74C963.212 121.74 953.503 126.762 947.142 136.471H946.807V123.749H933.416V210.293ZM1129.77 180.161C1129.77 188.029 1122.07 199.747 1103.32 199.747C1094.62 199.747 1086.58 196.399 1086.58 187.025C1086.58 176.479 1094.62 173.131 1103.99 171.457C1113.54 169.783 1124.25 169.615 1129.77 165.598V180.161ZM1152.87 198.91C1151.03 199.579 1149.69 199.747 1148.52 199.747C1144 199.747 1144 196.734 1144 190.038V145.51C1144 125.255 1127.09 121.74 1111.53 121.74C1092.28 121.74 1075.7 129.273 1074.87 150.7H1089.09C1089.76 137.977 1098.64 134.295 1110.69 134.295C1119.73 134.295 1129.94 136.304 1129.94 148.691C1129.94 159.404 1116.55 158.4 1100.81 161.413C1086.08 164.259 1071.52 168.444 1071.52 188.029C1071.52 205.271 1084.41 212.302 1100.14 212.302C1112.19 212.302 1122.74 208.117 1130.61 198.91C1130.61 208.284 1135.3 212.302 1142.66 212.302C1147.18 212.302 1150.36 211.465 1152.87 209.958V198.91ZM1160.57 183.007C1161.41 204.434 1177.82 212.302 1197.23 212.302C1214.81 212.302 1234.06 205.606 1234.06 185.016C1234.06 168.276 1220 163.589 1205.77 160.409C1192.55 157.228 1177.48 155.554 1177.48 145.343C1177.48 136.638 1187.36 134.295 1195.89 134.295C1205.27 134.295 1214.98 137.81 1215.98 148.858H1230.21C1229.04 127.766 1213.81 121.74 1194.72 121.74C1179.66 121.74 1162.41 128.938 1162.41 146.347C1162.41 162.92 1176.64 167.607 1190.7 170.787C1204.93 173.968 1218.99 175.809 1218.99 186.857C1218.99 197.738 1206.94 199.747 1198.07 199.747C1186.35 199.747 1175.3 195.729 1174.8 183.007H1160.57Z" fill="white"/>
<path d="M181.29 280.913L76.0229 220.137L181.29 159.361V280.913Z" fill="white"/>
<path d="M190.354 280.891L295.582 220.137L190.354 159.384V280.891Z" fill="white"/>
<path d="M300.118 212.317V90.774L194.859 151.546L300.118 212.317Z" fill="white"/>
<path d="M295.582 82.936L190.323 22.16L190.331 143.703L295.582 82.936Z" fill="white"/>
<path d="M76.016 82.94L181.29 22.16V143.721L76.016 82.94Z" fill="white"/>
<path d="M71.511 212.304V90.779L176.754 151.541L71.511 212.304Z" fill="white"/>
<path d="M140.805 172.315V130.777L176.778 151.546L140.805 172.315Z" fill="#454647"/>
<path d="M181.314 200.913L145.333 180.14L181.314 159.366V200.913Z" fill="#454647"/>
<path d="M190.354 200.908L226.315 180.146L190.354 159.384V200.908Z" fill="#454647"/>
<path d="M230.832 172.315V130.777L194.859 151.546L230.832 172.315Z" fill="#454647"/>
<path d="M226.32 122.943L190.354 102.178V143.707L226.32 122.943Z" fill="#454647"/>
<path d="M145.337 122.93L181.317 102.157V143.703L145.337 122.93Z" fill="#454647"/>
</svg>
