<svg width="713" height="215" viewBox="0 0 713 215" fill="none" xmlns="http://www.w3.org/2000/svg">
<path d="M87.4478 47.1292C34.6416 47.1292 0 85.6043 0 130.767C0 174.98 33.6805 214.412 86.9742 214.412C142.178 214.412 175.157 174.742 175.157 130.767C175.157 85.371 141.223 47.1292 87.4478 47.1292ZM416.136 47.1292C364.28 47.1292 326.766 83.4477 326.766 133.156C326.766 167.331 353.529 214.412 414.708 214.412C440.273 214.412 457.713 208.433 473.727 200.07V174.498C455.323 186.45 435.265 192.896 416.857 192.896C377.656 192.896 350.897 167.57 350.897 131.007C350.897 95.1636 378.617 68.6307 415.896 68.6307C434.777 68.6307 451.985 73.8886 472.059 85.6013V60.5093C449.824 51.1986 432.867 47.1292 416.136 47.1292ZM201.574 49.2779V212.256H224.984V141.525H234.787C246.729 141.525 256.528 145.35 278.044 178.802L299.539 212.256H327.494C316.277 196.729 312.203 191.232 305.278 180.004C292.855 159.685 283.774 144.626 268.955 134.824C286.396 127.903 296.195 113.806 296.195 94.931C296.195 66.7266 275.648 49.2779 242.668 49.2779H201.574ZM87.4478 68.6307C124.015 68.6307 151.026 94.9273 151.026 130.767C151.026 166.371 124.015 192.896 87.4478 192.896C51.125 192.896 24.1309 166.371 24.1309 130.767C24.1309 94.9273 51.125 68.6307 87.4478 68.6307ZM224.984 69.3584H240.039C262.745 69.3584 271.823 78.6781 272.065 93.9699C272.302 107.591 265.132 120.49 240.039 120.49H224.984V69.3584Z" fill="white"/>
<path d="M518.083 0C509.641 0 502.733 6.91104 502.733 15.3504C502.733 23.7941 509.641 30.7076 518.083 30.7076C526.521 30.7076 533.441 23.7941 533.441 15.3504C533.441 6.91104 526.521 0 518.083 0ZM506.371 49.2778V212.256H529.788V49.2778H506.371ZM562.446 49.2778V212.256H625.996C679.775 212.256 712.503 172.586 712.503 130.767C712.503 92.2935 685.98 49.2778 625.77 49.2778H562.446ZM585.863 70.3125H621.946C667.579 70.3125 688.379 98.0251 688.379 130.767C688.379 150.84 676.18 191.228 623.133 191.228H585.863V70.3125Z" fill="#A6CE39"/>
</svg>
